<svg width="7" height="7" viewBox="0 0 7 7" fill="none" xmlns="http://www.w3.org/2000/svg">
<path d="M3.6676 2.96756C4.1344 2.96756 4.546 2.926 4.546 2.42131C4.546 1.99856 4.0948 1.95106 3.724 1.95106H2.97279V2.96756H3.6676ZM2.9764 4.94238H2.3476V1.46419H3.7864C4.7044 1.46419 5.1676 1.7575 5.1676 2.46406C5.1676 3.09225 4.7464 3.35469 4.1812 3.41525L5.24319 4.94238H4.53999L3.56199 3.45444H2.9764V4.94238ZM3.65079 0.54625C2.16639 0.54625 1.01199 1.615 1.01199 3.14331C1.01199 4.57188 2.02239 5.73681 3.65079 5.73681C5.11479 5.73681 6.27039 4.67994 6.27039 3.14331C6.27039 1.615 5.11479 0.54625 3.65079 0.54625ZM3.65079 6.28663C1.68039 6.28663 0.277588 4.93406 0.277588 3.14331C0.277588 1.25281 1.83399 0 3.65079 0C5.44479 0 7.0012 1.25281 7.0012 3.14331C7.0012 5.03381 5.44479 6.28663 3.65079 6.28663Z" fill="black"/>
</svg>
